<?xml version="1.0" encoding="UTF-8" ?>
<!DOCTYPE svg PUBLIC "-//W3C//DTD SVG 1.1//EN" "http://www.w3.org/Graphics/SVG/1.1/DTD/svg11.dtd">
<svg width="800pt" height="400pt" viewBox="0 0 800 400" version="1.1" xmlns="http://www.w3.org/2000/svg">
  <g>
    <path fill="#020006" opacity="1.00" d=" M 60.20 136.24 C 71.59 134.67 83.65 136.49 93.62 142.38 C 106.12 148.51 115.10 160.25 120.00 173.05 C 124.81 187.11 123.83 203.39 116.22 216.29 C 105.56 237.40 79.82 249.23 56.80 244.14 C 41.52 240.74 27.29 230.89 20.18 216.73 C 14.01 206.39 12.18 193.81 14.01 182.00 C 16.35 168.07 24.13 154.96 35.51 146.52 C 42.92 141.46 51.19 137.30 60.20 136.24 M 60.42 155.59 C 50.89 157.78 42.43 164.12 37.61 172.61 C 32.01 182.17 31.32 194.36 35.59 204.55 C 41.55 219.38 58.36 228.86 74.14 225.82 C 84.54 224.02 93.96 217.26 99.01 207.98 C 103.42 200.16 104.48 190.65 102.42 181.95 C 100.07 172.36 93.64 163.83 84.95 159.10 C 77.58 154.92 68.66 153.76 60.42 155.59 Z"/>
    <path fill="#020006" opacity="1.00" d=" M 333.13 154.08 C 343.16 143.42 357.15 135.96 371.99 135.71 C 383.83 135.16 395.42 139.04 405.38 145.27 C 401.96 150.67 398.15 155.81 394.68 161.18 C 387.37 156.60 378.73 153.49 370.00 154.84 C 353.02 156.49 339.24 172.16 338.81 189.04 C 338.00 202.81 346.01 216.54 358.38 222.62 C 369.78 228.65 384.09 227.11 394.62 219.93 C 398.18 225.18 401.78 230.41 405.33 235.66 C 396.43 240.99 386.45 244.99 375.95 245.19 C 362.88 246.00 350.00 241.15 339.73 233.27 C 330.74 226.16 324.42 215.97 321.18 205.06 C 316.27 187.47 320.89 167.64 333.13 154.08 Z"/>
    <path fill="#020006" opacity="1.00" d=" M 530.51 135.65 C 533.28 135.63 536.06 135.63 538.84 135.66 C 554.73 156.27 570.57 176.93 586.52 197.50 C 602.35 176.85 618.28 156.28 634.14 135.65 C 636.91 135.64 639.68 135.63 642.46 135.65 C 642.48 171.82 642.47 207.99 642.46 244.16 C 635.99 244.17 629.51 244.17 623.04 244.16 C 623.01 223.30 623.05 202.44 623.02 181.57 C 611.07 197.50 598.68 213.09 586.46 228.80 C 574.32 212.89 562.15 197.01 549.96 181.15 C 549.92 202.15 549.96 223.16 549.94 244.16 C 543.46 244.17 536.99 244.17 530.51 244.16 C 530.50 207.99 530.51 171.82 530.51 135.65 Z"/>
    <path fill="#020006" opacity="1.00" d=" M 656.81 135.64 C 659.57 135.64 662.34 135.64 665.10 135.64 C 681.02 156.24 696.88 176.89 712.79 197.50 C 728.77 176.87 744.53 156.07 760.66 135.56 C 763.36 135.64 766.06 135.65 768.77 135.65 C 768.77 171.82 768.78 208.00 768.77 244.17 C 762.29 244.16 755.81 244.19 749.33 244.15 C 749.32 223.29 749.35 202.42 749.32 181.56 C 737.39 197.50 724.97 213.07 712.78 228.80 C 700.62 212.89 688.44 197.00 676.25 181.12 C 676.23 202.13 676.25 223.15 676.24 244.16 C 669.76 244.17 663.29 244.17 656.81 244.16 C 656.80 207.99 656.80 171.82 656.81 135.64 Z"/>
    <path fill="#020006" opacity="1.00" d=" M 136.28 136.78 C 150.17 136.78 164.07 136.75 177.97 136.79 C 190.17 136.89 203.09 141.29 210.78 151.20 C 214.07 155.07 215.90 160.05 216.24 165.10 C 216.86 174.03 214.50 183.53 208.25 190.17 C 205.19 193.53 201.16 195.76 197.00 197.46 C 204.30 213.05 211.68 228.60 219.01 244.17 C 211.93 244.17 204.86 244.17 197.79 244.18 C 190.78 229.36 183.80 214.53 176.82 199.70 C 169.78 199.68 162.75 199.68 155.72 199.69 C 155.71 214.51 155.71 229.33 155.72 244.15 C 149.24 244.19 142.76 244.18 136.28 244.16 C 136.27 208.36 136.27 172.57 136.28 136.78 M 155.71 155.51 C 155.69 163.87 155.77 172.24 155.66 180.60 C 163.11 180.75 170.56 180.65 178.00 180.67 C 182.88 180.68 188.10 180.25 192.17 177.28 C 195.98 174.74 197.49 169.63 196.56 165.30 C 194.30 158.80 187.01 155.73 180.57 155.55 C 172.29 155.41 164.00 155.52 155.71 155.51 Z"/>
    <path fill="#020006" opacity="1.00" d=" M 230.87 136.77 C 244.59 136.77 258.31 136.73 272.03 136.79 C 280.80 136.91 290.12 138.26 297.28 143.72 C 303.25 148.23 306.60 155.58 306.96 162.97 C 307.89 172.91 304.28 183.59 296.16 189.76 C 301.59 192.92 306.08 197.71 308.47 203.56 C 312.47 213.11 310.96 225.08 303.80 232.75 C 296.58 240.73 285.49 243.95 275.01 244.12 C 260.29 244.22 245.58 244.14 230.87 244.16 C 230.85 208.36 230.85 172.57 230.87 136.77 M 250.30 180.68 C 259.49 180.38 268.77 181.33 277.91 180.15 C 286.99 178.70 290.60 166.56 285.40 159.61 C 281.81 156.34 276.67 155.78 272.02 155.66 C 264.78 155.58 257.55 155.68 250.31 155.63 C 250.27 163.98 250.30 172.33 250.30 180.68 M 250.29 225.30 C 260.18 225.05 270.15 225.98 279.97 224.56 C 285.68 223.77 291.52 219.22 291.25 212.99 C 291.62 206.39 285.56 201.56 279.56 200.52 C 269.91 198.80 260.06 199.82 250.32 199.53 C 250.27 208.12 250.31 216.71 250.29 225.30 Z"/>
    <path fill="#020006" opacity="1.00" d=" M 417.89 157.99 C 426.31 146.27 439.64 138.59 453.79 136.21 C 453.82 142.76 453.80 149.31 453.81 155.87 C 443.11 158.55 433.70 166.16 429.39 176.38 C 422.99 190.59 427.51 208.68 439.89 218.17 C 452.12 228.20 471.14 228.39 483.52 218.51 C 489.88 213.66 494.33 206.59 496.36 198.89 C 502.94 198.80 509.52 198.86 516.10 198.85 C 514.17 209.37 509.64 219.52 502.27 227.35 C 493.05 237.54 479.81 244.08 466.08 244.96 C 451.93 246.40 437.41 241.53 426.60 232.38 C 415.81 223.37 408.73 210.07 407.37 196.07 C 406.16 182.68 409.73 168.76 417.89 157.99 Z"/>
  </g>
  <g>
    <path fill="#ba1e3c" opacity="1.00" d=" M 461.79 135.59 C 476.82 135.60 491.72 141.96 501.93 153.02 C 511.38 163.01 516.70 176.66 516.74 190.40 C 510.29 190.40 503.85 190.40 497.40 190.40 C 497.17 180.32 492.84 170.32 485.11 163.75 C 478.74 158.07 470.26 155.17 461.78 154.95 C 461.78 148.49 461.78 142.04 461.79 135.59 Z"/>
    <path fill="#ba1e3c" opacity="1.00" d=" M 461.79 163.45 C 469.73 163.66 477.60 167.18 482.59 173.44 C 486.59 178.16 488.50 184.28 488.78 190.39 C 484.50 190.40 480.22 190.41 475.95 190.39 C 475.73 182.85 469.35 176.44 461.79 176.29 C 461.77 172.01 461.77 167.73 461.79 163.45 Z"/>
    <path fill="#ba1e3c" opacity="1.00" d=" M 459.45 183.64 C 464.52 181.63 470.30 186.85 468.79 192.10 C 467.86 197.22 460.84 199.47 457.05 195.90 C 452.86 192.59 454.32 185.12 459.45 183.64 Z"/>
  </g>
</svg>
